# xmcd
#
# Track frame offsets:
#	150
#	17640
#	30705
#	46013
#	61036
#	79044
#	94659
#	113349
#	131139
#	149387
#	165452
#	180617
#	196675
#	211998
#	228588
#
# Disc length: 3226 seconds
#
# Revision: 1
# Processed by: cddbd v1.5.2PL0 Copyright (c) Steve Scherf et al.
# Submitted via: audiograbber 1.83.01
#
DISCID=b70c980f
DTITLE=Taylor Swift - Taylor Swift
DYEAR=2008
DGENRE=Country
TTITLE0=Tim McGraw
TTITLE1=Picture To Burn
TTITLE2=Teardrops On My Guitar (Radio Single Remix)
TTITLE3=A Place In This World
TTITLE4=Cold As You
TTITLE5=The Outside
TTITLE6=Tied Together With A Smile
TTITLE7=Stay Beautiful
TTITLE8=Should've Said No
TTITLE9=Mary's Song (Oh My My My)
TTITLE10=Our Song
TTITLE11=I'm Only Me When I'm With You
TTITLE12=Invisible
TTITLE13=A Perfectly Good Heart
TTITLE14=Teardrops On My Guitar (Pop Version)
EXTD=
EXTT0=
EXTT1=
EXTT2=
EXTT3=
EXTT4=
EXTT5=
EXTT6=
EXTT7=
EXTT8=
EXTT9=
EXTT10=
EXTT11=
EXTT12=
EXTT13=
EXTT14=
PLAYORDER=
